<svg xmlns="http://www.w3.org/2000/svg" viewBox="0 0 64 64" width="64" height="64"><path d="M41.5,14.5A14.5,14.5,0,0,0,14.5,23a14.39,14.39,0,0,0,2.5,8.5A10.5,10.5,0,0,0,10,42.5a10.42,10.42,0,0,0,10.5,10.5H41.5A12.5,12.5,0,0,0,41.5,27,12.35,12.35,0,0,0,41.5,14.5Z" fill="#f2f2f2"/><path d="M41.5,12.5A12.5,12.5,0,0,0,29,25a12.35,12.35,0,0,0,12.5,12.5h12A10.5,10.5,0,0,0,54,27,10.42,10.42,0,0,0,43.5,16.5,12.35,12.35,0,0,0,41.5,12.5Z" fill="#e6e6e6"/><path d="M20.5,27A10.5,10.5,0,0,0,10,37.5a10.42,10.42,0,0,0,10.5,10.5H43.5A8.5,8.5,0,0,0,43.5,31,8.41,8.41,0,0,0,35,22.5,10.4,10.4,0,0,0,20.5,27Z" fill="#d9d9d9"/><path d="M41.5,27h-21a10.5,10.5,0,0,0,0,21h21a12.5,12.5,0,0,0,0-25,12.35,12.35,0,0,0-12.5-12.5,14.39,14.39,0,0,0-14,9.5,10.5,10.5,0,0,0,2.5,21.5H41.5A12.5,12.5,0,0,0,41.5,27Z" fill="#cccccc"/></svg>