<svg xmlns="http://www.w3.org/2000/svg" viewBox="0 0 64 64" width="64" height="64"><path d="M32,14A18,18,0,1,0,50,32,18,18,0,0,0,32,14Zm0,32A14,14,0,1,1,46,32,14,14,0,0,1,32,46Z" fill="#ffc107"/><path d="M41.5,14.5A14.5,14.5,0,0,0,14.5,23a14.39,14.39,0,0,0,2.5,8.5A10.5,10.5,0,0,0,10,42.5a10.42,10.42,0,0,0,10.5,10.5H41.5A12.5,12.5,0,0,0,41.5,27,12.35,12.35,0,0,0,41.5,14.5Z" fill="#f2f2f2"/><path d="M41.5,12.5A12.5,12.5,0,0,0,29,25a12.35,12.35,0,0,0,12.5,12.5h12A10.5,10.5,0,0,0,54,27,10.42,10.42,0,0,0,43.5,16.5,12.35,12.35,0,0,0,41.5,12.5Z" fill="#e6e6e6"/></svg>