<svg xmlns="http://www.w3.org/2000/svg" viewBox="0 0 64 64" width="64" height="64"><path d="M32,14A18,18,0,1,0,50,32,18,18,0,0,0,32,14Zm0,32A14,14,0,1,1,46,32,14,14,0,0,1,32,46Z" fill="#ffc107"/><path d="M32,6a2,2,0,0,0-2,2V12a2,2,0,0,0,4,0V8A2,2,0,0,0,32,6Z" fill="#ffc107"/><path d="M32,54a2,2,0,0,0-2,2v4a2,2,0,0,0,4,0V56A2,2,0,0,0,32,54Z" fill="#ffc107"/><path d="M12,30H8a2,2,0,0,0,0,4h4a2,2,0,0,0,0-4Z" fill="#ffc107"/><path d="M56,30h-4a2,2,0,0,0,0,4h4a2,2,0,0,0,0-4Z" fill="#ffc107"/><path d="M18.34,15.66l-2.83-2.83a2,2,0,1,0-2.83,2.83l2.83,2.83a2,2,0,1,0,2.83-2.83Z" fill="#ffc107"/><path d="M48.49,45.66l-2.83-2.83a2,2,0,1,0-2.83,2.83l2.83,2.83a2,2,0,1,0,2.83-2.83Z" fill="#ffc107"/><path d="M15.51,48.49l2.83-2.83a2,2,0,1,0-2.83-2.83l-2.83,2.83a2,2,0,1,0,2.83,2.83Z" fill="#ffc107"/><path d="M45.66,18.34l2.83-2.83a2,2,0,1,0-2.83-2.83l-2.83,2.83a2,2,0,0,0,2.83,2.83Z" fill="#ffc107"/></svg>